<svg xmlns="http://www.w3.org/2000/svg" width="414" height="85" fill="none"><g clip-path="url(#a)"><path fill="#fff" d="M127.1 14.5a26.5 26.5 0 0 1 18.9 7.3 1.4 1.4 0 0 1 0 2.1l-4.6 5a1.3 1.3 0 0 1-1 .4 1.3 1.3 0 0 1-1-.5 18.7 18.7 0 0 0-12-4.6 17.9 17.9 0 0 0-6.9 1.5 17.8 17.8 0 0 0-5.7 4 17.6 17.6 0 0 0-3.7 5.8 17.6 17.6 0 0 0-1.2 6.9 17.6 17.6 0 0 0 5 12.6 17.8 17.8 0 0 0 5.8 4 17.8 17.8 0 0 0 6.8 1.4 18.9 18.9 0 0 0 12-4.5 1.5 1.5 0 0 1 2 0l4.8 5a1.5 1.5 0 0 1 0 2.1 27 27 0 0 1-19 7.5 28.4 28.4 0 0 1-11-1.9 28.2 28.2 0 0 1-9.4-6 28 28 0 0 1-6.3-9.2 27.9 27.9 0 0 1 0-21.8 28 28 0 0 1 6.3-9.1 28.2 28.2 0 0 1 9.4-6 28.4 28.4 0 0 1 11-2h-.2Zm26.2 53.3 24.4-52.4a1.4 1.4 0 0 1 1.3-.9h.8a1.4 1.4 0 0 1 1.3.9l24.1 52.4a1.4 1.4 0 0 1-1.3 2H197a2.3 2.3 0 0 1-1.4-.4 2.2 2.2 0 0 1-.9-1.2l-3.8-8.4h-23.4l-3.9 8.4a2.4 2.4 0 0 1-.9 1.2c-.4.2-.9.4-1.4.4h-6.8a1.4 1.4 0 0 1-1.2-.6 1.4 1.4 0 0 1-.1-1.4ZM187 51.2 179.3 34h-.3l-7.6 17.2H187Zm35.6-35.5a1.3 1.3 0 0 1 .5-.9c.2-.2.6-.3 1-.3h1.2a1.4 1.4 0 0 1 1.3.8L243.9 52h.3l17.2-36.7a1.3 1.3 0 0 1 1.3-.8h1.3c.3 0 .7.1 1 .3a1.3 1.3 0 0 1 .4.9l9.2 52.3a1.4 1.4 0 0 1-.7 1.7l-.7.1h-7a1.7 1.7 0 0 1-1.6-1.2L260 39.1h-.2L246 69.8a1.3 1.3 0 0 1-.5.6c-.2.2-.5.2-.8.2h-1.4a1.4 1.4 0 0 1-1.3-.8L228 39h-.2l-4.6 29.5a1.5 1.5 0 0 1-1.4 1.2h-7a1.4 1.4 0 0 1-1.3-.5 1.4 1.4 0 0 1-.2-1.4l9.3-52.2Zm65 1a1.5 1.5 0 0 1 1.5-1.4h18c9.2 0 16.5 6.2 16.5 14.4 0 6-5 10.7-8.6 12.4 4.1 1.3 10.1 5.5 10.1 12.7 0 8.7-7.5 15-17 15h-19a1.5 1.5 0 0 1-1-.5 1.5 1.5 0 0 1-.5-1V16.8Zm18.5 21.5a6.7 6.7 0 0 0 2.6-.6 6.7 6.7 0 0 0 2.3-1.5 6.7 6.7 0 0 0 1.8-4.9 6.3 6.3 0 0 0-.4-2.6 6.4 6.4 0 0 0-3.7-3.6 6.4 6.4 0 0 0-2.6-.4h-8.4v13.6h8.4Zm1 22.4a7 7 0 0 0 2.8-.5 7 7 0 0 0 2.3-1.6 7 7 0 0 0 1.6-2.3 7 7 0 0 0 .5-2.7c0-3.9-4-6.8-8-6.8h-8.6v13.9h9.5ZM339 16.8a1.5 1.5 0 0 1 1.4-1.5h7.2a1.5 1.5 0 0 1 1.5 1.5v43.6h20a1.5 1.5 0 0 1 1 .5c.3.2.5.6.5 1v6.4c0 .4-.2.8-.4 1a1.5 1.5 0 0 1-1.1.5h-28.7a1.5 1.5 0 0 1-1.3-1 1.5 1.5 0 0 1-.1-.5V16.8Zm46.5 26.7-17.9-26a1.4 1.4 0 0 1 .5-2l.8-.2h8a1.5 1.5 0 0 1 1.2.7l12.6 17.9 12.5-18a1.5 1.5 0 0 1 1.3-.6h8a1.5 1.5 0 0 1 1.3.7 1.4 1.4 0 0 1 0 1.6l-18.2 25.9v24.8a1.5 1.5 0 0 1-.4 1 1.5 1.5 0 0 1-1 .5h-7.3a1.5 1.5 0 0 1-1-.5 1.5 1.5 0 0 1-.5-1l.1-24.8Z"/><path fill="#FFC929" d="M85.5 42.2A42.6 42.6 0 0 0 42.5 0 42.6 42.6 0 0 0 0 42.7 42.6 42.6 0 0 0 43 85a42.6 42.6 0 0 0 42.5-42.7Z"/><path fill="#EF502E" d="M50 84.5a41 41 0 0 1-7.2.6c-1.3 0-2.5 0-3.7-.2.8-1.4-27-23.3-27.6-22.5-.7-7.1-5.8-16.8-5-24.2C7.3 27 19.1 21.6 29 23.6a14 14 0 0 1 5.6 2.4v.1c-2.2 1.9 9.2 17 9.8 16.3 1.2 3.3 2.1 6.3 3 8.5 4.4 12.2 7 23.5 2.5 33.6Z"/><path fill="#fff" d="M27.1 41.8a.2.2 0 0 1-.2 0 11 11 0 0 0-4.8-.1 11.3 11.3 0 0 0-4.7 2.2.2.2 0 0 1-.2 0 9.5 9.5 0 0 1-1.3-4.2 6 6 0 0 1 1.2-4.6 6 6 0 0 1 1.8-1.5 6.1 6.1 0 0 1 2.3-.8c3-.2 5.6 1.6 6.2 5.7a8 8 0 0 1-.3 3.3Z"/><path fill="#353535" d="M19.2 40.5a6 6 0 0 1 5.6-1.3 4.8 4.8 0 0 0-.3-1.3 2.7 2.7 0 0 0-1.3-1.5 2.8 2.8 0 0 0-2-.2 3.2 3.2 0 0 0-2 1.7 3.1 3.1 0 0 0 0 2.6Zm53.7-15.2L47.2 38.6c-.3 0-.6.3-.7.5a9.4 9.4 0 0 1-2 3.1 10.3 10.3 0 0 1-6 3c-4.2.8-8.1-1.4-7.9-2.2a9.5 9.5 0 0 0 .4-4.7c-.3-3.6-2.1-4.8-1.3-6.9a15.4 15.4 0 0 1 4.9-5.5 187.3 187.3 0 0 1 16.8-11.7c6.3-3.6 12.6-4 19.2 3.7a16.5 16.5 0 0 1 3.2 5.5v1.1a1.6 1.6 0 0 1-.9.8Z"/><path fill="#CC2525" d="M42.3 73a19 19 0 0 1-.3 3.7 20.6 20.6 0 0 1-.4 1.7 36.3 36.3 0 0 1-.5 1.8 25.1 25.1 0 0 1-2 4.6 42.9 42.9 0 0 1-17.4-5.4A42.6 42.6 0 0 1 8 67.4l1.8-2.8a18.4 18.4 0 0 1 1.7-2.3 18.2 18.2 0 0 1 2.2-2.2l.5-.4.7-.6.8-.4.6-.4.7-.4.7-.4a8.3 8.3 0 0 1 .9-.3 17.3 17.3 0 0 1 3.4-1h.8L24 56h1a16.8 16.8 0 0 1 7.6 1.8 21.5 21.5 0 0 1 2.9 1.9l.9.7.8.8 1.2 1.3 1.1 1.5a16.2 16.2 0 0 1 2.4 5.5c.3 1.1.4 2.3.4 3.5Z"/></g><defs><clipPath id="a"><path fill="#fff" d="M0 0h414v85H0z"/></clipPath></defs></svg>